<?xml version="1.0" encoding="utf-8"?>
<!-- Generator: Adobe Illustrator 15.0.0, SVG Export Plug-In . SVG Version: 6.00 Build 0)  -->
<!DOCTYPE svg PUBLIC "-//W3C//DTD SVG 1.1//EN" "http://www.w3.org/Graphics/SVG/1.1/DTD/svg11.dtd">
<svg version="1.1" x="0px" y="0px" viewBox="0 0 400 400" enable-background="new 0 0 400 400" xmlns="http://www.w3.org/2000/svg">
  <defs></defs>
  <radialGradient id="SVGID_1_" cx="200.3335" cy="398.834" r="283.2278" gradientUnits="userSpaceOnUse">
    <stop offset="0" style="stop-color:#6A4479"></stop>
    <stop offset="1" style="stop-color:#3BB8DD"></stop>
  </radialGradient>
  <g transform="matrix(1, 0, 0, 1, 0.000007, 1.7135)">
    <circle cx="200" cy="199.167" r="26.5" style=""></circle>
    <path d="M 200 144.167 C 169.673 144.167 145 168.84 145 199.167 C 145 219.892 156.526 237.97 173.5 247.344 L 173.5 240.351 C 159.977 231.62 151 216.427 151 199.167 C 151 172.148 172.981 150.167 200 150.167 C 227.019 150.167 249 172.148 249 199.167 C 249 216.426 240.022 231.618 226.5 240.35 L 226.5 247.344 C 243.475 237.969 255 219.892 255 199.167 C 255 168.84 230.327 144.167 200 144.167 Z" style=""></path>
    <path d="M 200 115.247 C 153.727 115.247 116.08 152.893 116.08 199.167 C 116.08 236.181 140.178 267.652 173.5 278.774 L 173.5 272.44 C 143.542 261.572 122.08 232.831 122.08 199.167 C 122.08 156.202 157.034 121.247 200 121.247 C 242.965 121.247 277.92 156.202 277.92 199.167 C 277.92 232.831 256.458 261.572 226.5 272.44 L 226.5 278.774 C 259.822 267.652 283.92 236.18 283.92 199.167 C 283.92 152.894 246.273 115.247 200 115.247 Z" style=""></path>
    <path d="M 200 86.127 C 137.669 86.127 86.96 136.836 86.96 199.167 C 86.96 252.373 123.913 297.105 173.501 309.063 L 173.501 302.885 C 127.254 291.064 92.96 249.046 92.96 199.167 C 92.96 140.145 140.978 92.127 200 92.127 C 259.022 92.127 307.04 140.145 307.04 199.167 C 307.04 249.046 272.747 291.063 226.5 302.885 L 226.5 309.063 C 276.087 297.104 313.04 252.374 313.04 199.167 C 313.04 136.836 262.33 86.127 200 86.127 Z" style=""></path>
    <path d="M 200 57.42 C 121.84 57.42 58.253 121.007 58.253 199.167 C 58.253 268.271 107.963 325.974 173.501 338.419 L 173.501 332.31 C 111.293 319.95 64.253 264.953 64.253 199.167 C 64.253 124.316 125.149 63.42 200 63.42 C 274.852 63.42 335.747 124.316 335.747 199.167 C 335.747 264.952 288.708 319.949 226.5 332.31 L 226.5 338.419 C 292.037 325.974 341.747 268.271 341.747 199.167 C 341.747 121.007 278.159 57.42 200 57.42 Z" style=""></path>
    <path d="M 200 28.513 C 105.901 28.513 29.346 105.068 29.346 199.167 C 29.346 284.254 91.942 354.991 173.501 367.761 L 173.501 361.679 C 95.266 348.966 35.346 280.938 35.346 199.167 C 35.346 108.376 109.21 34.513 200 34.513 C 290.791 34.513 364.654 108.377 364.654 199.167 C 364.654 280.938 304.735 348.966 226.5 361.679 L 226.5 367.761 C 308.059 354.99 370.654 284.254 370.654 199.167 C 370.654 105.068 294.099 28.513 200 28.513 Z" style=""></path>
    <path d="M 200 -0.595 C 89.851 -0.595 0.238 89.018 0.238 199.167 C 0.238 300.333 75.833 384.165 173.5 397.168 L 173.5 391.108 C 79.153 378.147 6.238 297.019 6.238 199.167 C 6.238 92.327 93.16 5.405 200 5.405 C 306.841 5.405 393.762 92.326 393.762 199.167 C 393.762 297.019 320.848 378.147 226.5 391.108 L 226.5 397.168 C 324.167 384.164 399.762 300.333 399.762 199.167 C 399.762 89.018 310.149 -0.595 200 -0.595 Z" style=""></path>
  </g>
  <radialGradient id="SVGID_2_" cx="200.3335" cy="383.0371" r="267.9175" gradientUnits="userSpaceOnUse">
    <stop offset="0" style="stop-color:#6A4479"></stop>
    <stop offset="1" style="stop-color:#3BB8DD"></stop>
  </radialGradient>
  <radialGradient id="SVGID_3_" cx="200.3335" cy="391.5479" r="278.4669" gradientUnits="userSpaceOnUse">
    <stop offset="0" style="stop-color:#6A4479"></stop>
    <stop offset="1" style="stop-color:#3BB8DD"></stop>
  </radialGradient>
  <radialGradient id="SVGID_4_" cx="200.3335" cy="394.4844" r="281.771" gradientUnits="userSpaceOnUse">
    <stop offset="0" style="stop-color:#6A4479"></stop>
    <stop offset="1" style="stop-color:#3BB8DD"></stop>
  </radialGradient>
  <radialGradient id="SVGID_5_" cx="200.3335" cy="395.8291" r="282.8711" gradientUnits="userSpaceOnUse">
    <stop offset="0" style="stop-color:#6A4479"></stop>
    <stop offset="1" style="stop-color:#3BB8DD"></stop>
  </radialGradient>
  <radialGradient id="SVGID_6_" cx="200" cy="396.5986" r="283.7188" gradientUnits="userSpaceOnUse">
    <stop offset="0" style="stop-color:#6A4479"></stop>
    <stop offset="1" style="stop-color:#3BB8DD"></stop>
  </radialGradient>
  <radialGradient id="SVGID_7_" cx="200" cy="397.0732" r="283.7014" gradientUnits="userSpaceOnUse">
    <stop offset="0" style="stop-color:#6A4479"></stop>
    <stop offset="1" style="stop-color:#3BB8DD"></stop>
  </radialGradient>
  <radialGradient id="SVGID_8_" cx="200.7383" cy="197.7871" r="198.9102" gradientUnits="userSpaceOnUse">
    <stop offset="0" style="stop-color:#568EB6"></stop>
    <stop offset="1" style="stop-color:#568EB6;stop-opacity:0"></stop>
  </radialGradient>
  <radialGradient id="SVGID_9_" cx="200.7383" cy="197.7871" r="198.9102" gradientUnits="userSpaceOnUse">
    <stop offset="0" style="stop-color:#568EB6"></stop>
    <stop offset="1" style="stop-color:#568EB6;stop-opacity:0"></stop>
  </radialGradient>
  <radialGradient id="SVGID_10_" cx="200.7383" cy="194.4062" r="192.6993" gradientUnits="userSpaceOnUse">
    <stop offset="0" style="stop-color:#568EB6"></stop>
    <stop offset="1" style="stop-color:#568EB6;stop-opacity:0"></stop>
  </radialGradient>
  <radialGradient id="SVGID_11_" cx="200.7383" cy="195.6436" r="196.3338" gradientUnits="userSpaceOnUse">
    <stop offset="0" style="stop-color:#568EB6"></stop>
    <stop offset="1" style="stop-color:#568EB6;stop-opacity:0"></stop>
  </radialGradient>
  <radialGradient id="SVGID_12_" cx="200.7373" cy="196.2207" r="197.5166" gradientUnits="userSpaceOnUse">
    <stop offset="0" style="stop-color:#568EB6"></stop>
    <stop offset="1" style="stop-color:#568EB6;stop-opacity:0"></stop>
  </radialGradient>
  <radialGradient id="SVGID_13_" cx="200.7373" cy="196.5435" r="198.0295" gradientUnits="userSpaceOnUse">
    <stop offset="0" style="stop-color:#568EB6"></stop>
    <stop offset="1" style="stop-color:#568EB6;stop-opacity:0"></stop>
  </radialGradient>
  <radialGradient id="SVGID_14_" cx="200.7383" cy="196.7598" r="198.3063" gradientUnits="userSpaceOnUse">
    <stop offset="0" style="stop-color:#568EB6"></stop>
    <stop offset="1" style="stop-color:#568EB6;stop-opacity:0"></stop>
  </radialGradient>
</svg>