<?xml version="1.0" standalone="no"?>
<!DOCTYPE svg PUBLIC "-//W3C//DTD SVG 20010904//EN"
 "http://www.w3.org/TR/2001/REC-SVG-20010904/DTD/svg10.dtd">
<svg version="1.0" xmlns="http://www.w3.org/2000/svg"
 width="90.000000pt" height="90.000000pt" viewBox="0 0 90.000000 90.000000"
 preserveAspectRatio="xMidYMid meet">
<metadata>
Created by potrace 1.15, written by Peter Selinger 2001-2017
</metadata>
<g transform="translate(0.000000,90.000000) scale(0.100000,-0.100000)"
fill="#000000" stroke="none">
<path d="M422 808 c-9 -9 -12 -73 -12 -227 l0 -215 -48 47 c-52 51 -86 60 -97
26 -6 -18 9 -38 81 -110 49 -49 93 -89 99 -89 6 0 51 41 100 90 76 76 88 93
79 108 -20 32 -45 25 -95 -24 l-49 -48 0 215 c0 214 -4 239 -35 239 -6 0 -16
-5 -23 -12z"/>
<path d="M159 347 c-29 -15 -50 -36 -62 -60 -18 -36 -18 -38 0 -74 36 -74 156
-113 345 -113 175 0 316 41 348 100 17 31 12 84 -10 108 -23 24 -91 62 -113
62 -14 0 -64 -47 -56 -53 2 -1 26 -12 53 -22 90 -36 84 -66 -18 -101 -139 -47
-433 -23 -486 41 -15 18 17 48 73 65 55 18 54 16 27 45 -29 31 -45 31 -101 2z"/>
</g>
</svg>
