<?xml version="1.0" standalone="no"?>
<!DOCTYPE svg PUBLIC "-//W3C//DTD SVG 20010904//EN"
 "http://www.w3.org/TR/2001/REC-SVG-20010904/DTD/svg10.dtd">
<svg viewBox="0 0 500 500" xmlns="http://www.w3.org/2000/svg" xmlns:bx="https://boxy-svg.com">
  <defs></defs>
  <g transform="matrix(0.724077, -0.724077, 0.724077, 0.724077, -110.96376, 251.074768)">
    <rect x="460" y="166" width="40" height="168" style="fill: rgb(216, 216, 216);"></rect>
    <rect y="166" width="40" height="168" style="fill: rgb(216, 216, 216);"></rect>
    <rect x="77.764" y="230" width="357.143" height="40" style="fill: rgb(216, 216, 216);"></rect>
    <g transform="matrix(1, 0, 0, 1, -119.815666, -70.585007)">
      <rect style="fill: rgb(216, 216, 216);" x="160" y="300" width="136" height="40" rx="20" ry="20" transform="matrix(0.707107, -0.707107, 0.707107, 0.707107, -173.553391, 221.005066)" bx:origin="0.147059 0.5"></rect>
      <rect style="fill: rgb(216, 216, 216);" x="160" y="300" width="136" height="40" rx="20" ry="20" transform="matrix(0.694658, 0.71934, -0.71934, 0.694658, 285.150238, -31.77186)" bx:origin="0.147059 0.5"></rect>
    </g>
    <g transform="matrix(-1, 0, 0, 1, 619.702759, -70.585007)">
      <rect style="fill: rgb(216, 216, 216);" x="160" y="300" width="136" height="40" rx="20" ry="20" transform="matrix(0.707107, -0.707107, 0.707107, 0.707107, -173.553391, 221.005066)" bx:origin="0.147059 0.5"></rect>
      <rect style="fill: rgb(216, 216, 216);" x="160" y="300" width="136" height="40" rx="20" ry="20" transform="matrix(0.694658, 0.71934, -0.71934, 0.694658, 285.150238, -31.77186)" bx:origin="0.147059 0.5"></rect>
    </g>
  </g>
</svg>