<?xml version="1.0" encoding="iso-8859-1"?>
<!-- Generator: Adobe Illustrator 16.0.0, SVG Export Plug-In . SVG Version: 6.00 Build 0)  -->
<!DOCTYPE svg PUBLIC "-//W3C//DTD SVG 1.1//EN" "http://www.w3.org/Graphics/SVG/1.1/DTD/svg11.dtd">
<svg version="1.1" id="Capa_1" x="0px" y="0px" width="560.994px" height="560.994px" viewBox="0 0 560.994 560.994" style="enable-background:new 0 0 560.994 560.994;" xmlns="http://www.w3.org/2000/svg">
  <defs></defs>
  <path d="M 297.441 344.38 C 284.186 344.38 273.441 357.79 273.441 374.327 L 273.441 508.138 C 273.441 524.677 284.187 538.086 297.441 538.086 C 310.694 538.086 321.441 524.677 321.441 508.138 L 321.441 374.327 C 321.442 357.79 310.695 344.38 297.441 344.38 Z" style=""></path>
  <path d="M 417.241 239.565 C 403.986 239.565 393.241 252.974 393.241 269.511 L 393.241 508.138 C 393.241 524.677 403.986 538.086 417.241 538.086 C 430.495 538.086 441.241 524.677 441.241 508.138 L 441.241 269.511 C 441.241 252.974 430.494 239.565 417.241 239.565 Z" style=""></path>
  <path d="M 536.31 135.312 C 523.057 135.312 512.31 148.721 512.31 165.257 L 512.31 508.7 C 512.31 525.238 523.057 538.648 536.31 538.648 C 549.563 538.648 560.31 525.238 560.31 508.7 L 560.31 165.257 C 560.31 148.719 549.565 135.312 536.31 135.312 Z" style=""></path>
  <g></g>
  <g></g>
  <g></g>
  <g></g>
  <g></g>
  <g></g>
  <g></g>
  <g></g>
  <g></g>
  <g></g>
  <g></g>
  <g></g>
  <g></g>
  <g></g>
  <g></g>
  <path d="M 108.5 246.741 C 95.245 246.741 84.5 259.86 84.5 276.04 L 84.5 509.526 C 84.5 525.707 95.245 538.829 108.5 538.829 C 121.754 538.829 132.5 525.707 132.5 509.526 L 132.5 276.04 C 132.5 259.86 121.753 246.741 108.5 246.741 Z" style=""></path>
  <path d="M 108.497 273.42 L 124.673 257.244 L 92.321 257.244 Z M 95.693 305.87 L 5.183 215.361 C 3.664 213.841 2.514 212.092 1.733 210.225 C 0.937 208.324 0.497 206.237 0.497 204.047 C 0.497 201.857 0.937 199.77 1.733 197.869 C 2.514 196.002 3.664 194.253 5.183 192.733 C 6.703 191.214 8.452 190.064 10.319 189.283 C 12.22 188.487 14.307 188.047 16.497 188.047 L 200.497 188.047 C 202.687 188.047 204.774 188.487 206.675 189.283 C 208.542 190.064 210.291 191.214 211.811 192.733 C 213.33 194.253 214.48 196.002 215.261 197.869 C 216.057 199.77 216.497 201.857 216.497 204.047 C 216.497 206.237 216.057 208.324 215.261 210.225 C 214.48 212.092 213.33 213.841 211.811 215.361 L 121.301 305.87 C 120.383 306.788 119.381 307.571 118.32 308.22 C 115.332 310.046 111.874 310.802 108.497 310.488 C 103.921 310.913 99.196 309.374 95.693 305.87 Z" style=""></path>
</svg>