<?xml version="1.0" encoding="utf-8"?>
<!-- Generator: Adobe Illustrator 15.0.0, SVG Export Plug-In . SVG Version: 6.00 Build 0)  -->
<!DOCTYPE svg PUBLIC "-//W3C//DTD SVG 1.1//EN" "http://www.w3.org/Graphics/SVG/1.1/DTD/svg11.dtd">
<svg version="1.1" xmlns="http://www.w3.org/2000/svg" xmlns:xlink="http://www.w3.org/1999/xlink" x="0px" y="0px" 
	viewBox="0 0 400 400" enable-background="new 0 0 400 400" xml:space="preserve">
<g id="artwork">
	<g>
		<g>
			<radialGradient id="SVGID_1_" cx="200.3335" cy="398.834" r="283.2278" gradientUnits="userSpaceOnUse">
				<stop  offset="0" style="stop-color:#6A4479"/>
				<stop  offset="1" style="stop-color:#3BB8DD"/>
			</radialGradient>
			<circle fill="url(#SVGID_1_)" cx="200" cy="199.167" r="26.5"/>
			<radialGradient id="SVGID_2_" cx="200.3335" cy="383.0371" r="267.9175" gradientUnits="userSpaceOnUse">
				<stop  offset="0" style="stop-color:#6A4479"/>
				<stop  offset="1" style="stop-color:#3BB8DD"/>
			</radialGradient>
			<path fill="url(#SVGID_2_)" d="M200,144.167c-30.327,0-55,24.673-55,55c0,20.725,11.526,38.803,28.5,48.177v-6.993
				c-13.523-8.731-22.5-23.924-22.5-41.184c0-27.019,21.981-49,49-49s49,21.981,49,49c0,17.259-8.978,32.451-22.5,41.183v6.994
				c16.975-9.375,28.5-27.452,28.5-48.177C255,168.84,230.327,144.167,200,144.167z"/>
			<radialGradient id="SVGID_3_" cx="200.3335" cy="391.5479" r="278.4669" gradientUnits="userSpaceOnUse">
				<stop  offset="0" style="stop-color:#6A4479"/>
				<stop  offset="1" style="stop-color:#3BB8DD"/>
			</radialGradient>
			<path fill="url(#SVGID_3_)" d="M200,115.247c-46.273,0-83.92,37.646-83.92,83.92c0,37.014,24.098,68.485,57.42,79.607v-6.334
				c-29.958-10.868-51.42-39.609-51.42-73.273c0-42.965,34.954-77.92,77.92-77.92c42.965,0,77.92,34.955,77.92,77.92
				c0,33.664-21.462,62.405-51.42,73.273v6.334c33.322-11.122,57.42-42.594,57.42-79.607
				C283.92,152.894,246.273,115.247,200,115.247z"/>
			<radialGradient id="SVGID_4_" cx="200.3335" cy="394.4844" r="281.771" gradientUnits="userSpaceOnUse">
				<stop  offset="0" style="stop-color:#6A4479"/>
				<stop  offset="1" style="stop-color:#3BB8DD"/>
			</radialGradient>
			<path fill="url(#SVGID_4_)" d="M200,86.127c-62.331,0-113.04,50.709-113.04,113.04c0,53.206,36.953,97.938,86.541,109.896v-6.178
				c-46.247-11.821-80.541-53.839-80.541-103.718c0-59.022,48.018-107.04,107.04-107.04c59.022,0,107.04,48.018,107.04,107.04
				c0,49.879-34.293,91.896-80.54,103.718v6.178c49.587-11.959,86.54-56.689,86.54-109.896C313.04,136.836,262.33,86.127,200,86.127
				z"/>
			<radialGradient id="SVGID_5_" cx="200.3335" cy="395.8291" r="282.8711" gradientUnits="userSpaceOnUse">
				<stop  offset="0" style="stop-color:#6A4479"/>
				<stop  offset="1" style="stop-color:#3BB8DD"/>
			</radialGradient>
			<path fill="url(#SVGID_5_)" d="M200,57.42c-78.16,0-141.747,63.587-141.747,141.747c0,69.104,49.71,126.807,115.248,139.252
				v-6.109c-62.208-12.36-109.248-67.357-109.248-133.143C64.253,124.316,125.149,63.42,200,63.42
				c74.852,0,135.747,60.896,135.747,135.747c0,65.785-47.039,120.782-109.247,133.143v6.109
				c65.537-12.445,115.247-70.148,115.247-139.252C341.747,121.007,278.159,57.42,200,57.42z"/>
			<radialGradient id="SVGID_6_" cx="200" cy="396.5986" r="283.7188" gradientUnits="userSpaceOnUse">
				<stop  offset="0" style="stop-color:#6A4479"/>
				<stop  offset="1" style="stop-color:#3BB8DD"/>
			</radialGradient>
			<path fill="url(#SVGID_6_)" d="M200,28.513c-94.099,0-170.654,76.555-170.654,170.654c0,85.087,62.596,155.824,144.155,168.594
				v-6.082C95.266,348.966,35.346,280.938,35.346,199.167c0-90.791,73.864-164.654,164.654-164.654
				c90.791,0,164.654,73.864,164.654,164.654c0,81.771-59.919,149.799-138.154,162.512v6.082
				c81.559-12.771,144.154-83.507,144.154-168.594C370.654,105.068,294.099,28.513,200,28.513z"/>
			<radialGradient id="SVGID_7_" cx="200" cy="397.0732" r="283.7014" gradientUnits="userSpaceOnUse">
				<stop  offset="0" style="stop-color:#6A4479"/>
				<stop  offset="1" style="stop-color:#3BB8DD"/>
			</radialGradient>
			<path fill="url(#SVGID_7_)" d="M200-0.595C89.851-0.595,0.238,89.018,0.238,199.167c0,101.166,75.595,184.998,173.262,198.001
				v-6.06C79.153,378.147,6.238,297.019,6.238,199.167C6.238,92.327,93.16,5.405,200,5.405
				c106.841,0,193.762,86.921,193.762,193.762c0,97.852-72.914,178.98-167.262,191.941v6.06
				c97.667-13.004,173.262-96.835,173.262-198.001C399.762,89.018,310.149-0.595,200-0.595z"/>
		</g>
		<g>
			<radialGradient id="SVGID_8_" cx="200.7383" cy="197.7871" r="198.9102" gradientUnits="userSpaceOnUse">
				<stop  offset="0" style="stop-color:#568EB6"/>
				<stop  offset="1" style="stop-color:#568EB6;stop-opacity:0"/>
			</radialGradient>
			<circle fill="url(#SVGID_8_)" cx="200" cy="198.287" r="26.5"/>
			<radialGradient id="SVGID_9_" cx="200.7383" cy="197.7871" r="198.9102" gradientUnits="userSpaceOnUse">
				<stop  offset="0" style="stop-color:#568EB6"/>
				<stop  offset="1" style="stop-color:#568EB6;stop-opacity:0"/>
			</radialGradient>
			<path fill="url(#SVGID_9_)" d="M200,398.049c-110.148,0-199.762-89.613-199.762-199.762S89.852-1.475,200-1.475
				s199.762,89.613,199.762,199.762S310.148,398.049,200,398.049z M200,4.525C93.16,4.525,6.238,91.446,6.238,198.287
				S93.16,392.049,200,392.049s193.762-86.922,193.762-193.762S306.84,4.525,200,4.525z"/>
			<radialGradient id="SVGID_10_" cx="200.7383" cy="194.4062" r="192.6993" gradientUnits="userSpaceOnUse">
				<stop  offset="0" style="stop-color:#568EB6"/>
				<stop  offset="1" style="stop-color:#568EB6;stop-opacity:0"/>
			</radialGradient>
			<path fill="url(#SVGID_10_)" d="M200,143.287c-30.328,0-55,24.673-55,55c0,20.725,11.525,38.801,28.5,48.176v-6.992
				c-13.522-8.732-22.5-23.924-22.5-41.184c0-27.019,21.98-49,49-49c27.018,0,49,21.981,49,49c0,17.258-8.978,32.452-22.5,41.182
				v6.994c16.974-9.375,28.5-27.453,28.5-48.176C255,167.959,230.326,143.287,200,143.287z"/>
			<radialGradient id="SVGID_11_" cx="200.7383" cy="195.6436" r="196.3338" gradientUnits="userSpaceOnUse">
				<stop  offset="0" style="stop-color:#568EB6"/>
				<stop  offset="1" style="stop-color:#568EB6;stop-opacity:0"/>
			</radialGradient>
			<path fill="url(#SVGID_11_)" d="M200,114.367c-46.273,0-83.92,37.646-83.92,83.92c0,37.014,24.098,68.485,57.42,79.608v-6.334
				c-29.958-10.869-51.42-39.609-51.42-73.274c0-42.965,34.955-77.92,77.92-77.92s77.92,34.955,77.92,77.92
				c0,33.665-21.462,62.405-51.42,73.274v6.334c33.322-11.123,57.42-42.594,57.42-79.608
				C283.92,152.013,246.273,114.367,200,114.367z"/>
			<radialGradient id="SVGID_12_" cx="200.7373" cy="196.2207" r="197.5166" gradientUnits="userSpaceOnUse">
				<stop  offset="0" style="stop-color:#568EB6"/>
				<stop  offset="1" style="stop-color:#568EB6;stop-opacity:0"/>
			</radialGradient>
			<path fill="url(#SVGID_12_)" d="M200,85.247c-62.33,0-113.041,50.709-113.041,113.04c0,53.206,36.954,97.936,86.541,109.895
				v-6.178c-46.246-11.822-80.541-53.838-80.541-103.717c0-59.022,48.02-107.04,107.041-107.04s107.039,48.018,107.039,107.04
				c0,49.879-34.293,91.895-80.539,103.717v6.178c49.587-11.959,86.539-56.689,86.539-109.895
				C313.039,135.956,262.33,85.247,200,85.247z"/>
			<radialGradient id="SVGID_13_" cx="200.7373" cy="196.5435" r="198.0295" gradientUnits="userSpaceOnUse">
				<stop  offset="0" style="stop-color:#568EB6"/>
				<stop  offset="1" style="stop-color:#568EB6;stop-opacity:0"/>
			</radialGradient>
			<path fill="url(#SVGID_13_)" d="M200,56.54c-78.16,0-141.748,63.587-141.748,141.747c0,69.104,49.711,126.807,115.248,139.252
				v-6.109c-62.208-12.361-109.248-67.357-109.248-133.143C64.252,123.436,125.148,62.54,200,62.54s135.746,60.896,135.746,135.747
				c0,65.786-47.038,120.782-109.246,133.143v6.109c65.536-12.445,115.246-70.148,115.246-139.252
				C341.746,120.127,278.158,56.54,200,56.54z"/>
			<radialGradient id="SVGID_14_" cx="200.7383" cy="196.7598" r="198.3063" gradientUnits="userSpaceOnUse">
				<stop  offset="0" style="stop-color:#568EB6"/>
				<stop  offset="1" style="stop-color:#568EB6;stop-opacity:0"/>
			</radialGradient>
			<path fill="url(#SVGID_14_)" d="M200,27.632c-94.1,0-170.654,76.555-170.654,170.654c0,85.086,62.595,155.823,144.154,168.594
				v-6.082C95.265,348.086,35.346,280.057,35.346,198.287c0-90.791,73.863-164.654,164.654-164.654s164.654,73.864,164.654,164.654
				c0,81.77-59.919,149.799-138.154,162.512v6.082c81.558-12.771,144.154-83.508,144.154-168.594
				C370.654,104.188,294.098,27.632,200,27.632z"/>
		</g>
	</g>
</g>
</svg>
